<svg xmlns="http://www.w3.org/2000/svg" width="64" height="64" viewBox="0 0 24 24" fill="none" stroke="#40e0a0" stroke-width="1.5" stroke-linecap="round" stroke-linejoin="round">
  <path d="M2 5 Q0 3 1 0 Q4 1 4 4 Q3 5 2 5 Z" opacity="0.65"/>
  <path d="M6.5 4 Q4.5 2 5.5 0 Q7.5 1 7.5 3 Q7 4 6.5 4 Z" opacity="0.55"/>
  <path d="M4 8 Q2 6 3 3.5 Q5.5 4.5 5.5 6.5 Q4.5 8 4 8 Z" opacity="0.6"/>
  <path d="M21 0 L17 5 L19 5 L17 10 L22 4 L20 4 Z" fill="#40e0a0" opacity="0.7"/>
  <g transform="translate(0 4)">
    <path d="M3 9 Q3 4 8 3 Q13 2.5 15 7 Q18 7.5 20.5 9.5 Q21 11.5 19 12 Q15.5 12.5 14 12.5 Q9 13 3.5 12 Q2.5 11 3 9 Z"/>
    <path d="M4 5.5 Q10 0 14 5"/>
    <path d="M6 4 Q5.5 1.5 8 3"/>
    <circle cx="6.5" cy="7.5" r="1.7" fill="#40e0a0" stroke="none"/>
    <circle cx="12.5" cy="7" r="0.4" fill="#40e0a0" stroke="none"/>
  </g>
  <path d="M-1 22 Q3 17 7 22 Q12 17 17 22 Q21 17 25 22"/>
</svg>
