<?xml version="1.0" encoding="UTF-8"?>
<svg xmlns="http://www.w3.org/2000/svg" viewBox="0 0 303.4 330.65">
  <defs>
    <style>
      .cls-1 {
        fill: #b89040;
      }

      .cls-2 {
        fill: #06080f;
      }

      .cls-3 {
        fill: none;
        stroke: #4e4f54;
        stroke-linecap: round;
        stroke-miterlimit: 10;
        stroke-width: 10px;
      }

      .cls-4 {
        fill: #4a90d1;
      }

      .cls-5 {
        fill: #4e4f54;
      }
    </style>
  </defs>
  <rect class="cls-2" width="303.4" height="330.65"/>
  <g id="Layer_1" data-name="Layer 1">
    <path class="cls-1" d="M37.85,141.78c-.83,4.63-1.32,10.42-1.32,16.7,0,.7,0,1.4.02,2.1l.1-6.45c-.13,3.08-.16,6.2-.06,9.35,1.18,38.77,19.75,71.36,44.95,83.87h0c-.81-4.99-1.31-10.12-1.48-15.36-1.8-54.14,32.32-99.21,76.21-100.67l-1.99-.06c1.78-.03,3.63.04,5.41,0,11.21,0,20.77-3.24,24.4-7.77l-.13.21c.63-.74,1.02-1.69,1.02-2.73,0-1.92-1.31-3.55-3.12-4.1l.53.16c-2.49-.72-5.05-1.56-7.63-2.53-10.69-3.98-19.64-9.15-25.08-14.08l.22-.24c8.08,2.62,17.2,2.93,26.22.35,22.7-6.49,36.23-28.78,30.22-49.79-.9-3.13-2.17-6.05-3.78-8.74l-52.67,9.03c-6.49-12.94-22.93-22.12-42.19-22.12-21.43,0-39.37,11.38-43.99,26.64"/>
    <path class="cls-1" d="M188.83,265.26c-4.24,4.44-19.22,7.72-37.04,7.72-8.91,0-17.11-.82-23.61-2.2l.06-.27-.06-.13c3.77,6.05,7.55,14.82,10.45,24.88,2.22,7.68,3.6,14.99,4.15,21.19v.15c-.55-.04-1.09-.09-1.63-.13-7.89-.7-15.58-2.06-23.04-4.03v-.05c-21.89-16.87-36.93-46.38-38.06-80.39-1.69-51.01,28.5-93.97,68.69-99.99l5.9-.74c-15.61,0-28.26,10.14-28.26,22.66s12.65,22.66,28.26,22.66c3.9,0,7.62-.63,11-1.78l-1,.26c3.44-.97,7-2.22,10.6-3.75,4.34-1.85,8.36-3.94,11.93-6.16l-2.62,1.45c7.96-4.53,16.95-7.08,26.46-7.08,32.75,0,59.31,30.25,59.31,67.57,0,20.6-8.09,39.05-20.85,51.44h-.01c-23.25,22.06-53.81,36.21-87.56,38.23l.5-.12c-.43-1.78-.66-3.64-.66-5.55,0-9.5,5.63-17.62,13.59-20.89l-.59.25s35.28-15.85,35.28-15.85c-18.93-1.69-33.78-18.1-33.78-38.1,0-21.12,16.57-38.24,37-38.24"/>
    <path class="cls-5" d="M179.15,46.02l23.42-4.01c1.6,2.69,2.88,5.61,3.78,8.74,1.35,4.72,1.71,9.51,1.21,14.17-1.78.39-3.65.6-5.58.6-12.43,0-22.55-8.69-22.82-19.5Z"/>
    <path class="cls-5" d="M130.19,63.91c-4.45-2.17-8.42-3.11-11.03-.82-3.49,3.07-3.74,6.42-1.94,11.7-2.45.41-5.8-.53-7.67-2.51-3.99-4.23-4.56-10.14-1.75-14.56,2.92-4.59,7.98-7.22,13.97-5.57,4.25,1.17,8.63,5.67,8.41,11.75Z"/>
    <g>
      <path class="cls-4" d="M62.13,65.32c19.97,2.41,35.45,19.68,35.45,40.62,0,22.59-18.02,40.91-40.25,40.91s-40.25-18.32-40.25-40.91c0-15.47,8.45-28.93,20.91-35.88"/>
      <path class="cls-4" d="M108.5,14.22c-5.69-3.11-11.84-4.82-18.27-4.82-28.85,0-52.24,34.3-52.24,76.61,0,1.55.03,3.09.09,4.62l.17.3c4.15-4.52,10.11-7.35,16.73-7.35,2.22,0,4.37.32,6.41.92v-.02c-.05-1.58-.08-3.17-.08-4.78,0-37.55,16.63-68,37.14-68,10.13,0,19.32,7.43,26.02,19.48"/>
      <circle class="cls-4" cx="54.97" cy="106.28" r="22.71"/>
    </g>
    <path class="cls-1" d="M280.79,112.36c8.96,19.74,13.23,40.37,13.29,60.6,0,39.38-15.32,75.08-40.15,101.12l-4.46,4.45c12.76-12.39,20.85-30.84,20.85-51.44,0-10.69-2.18-20.81-6.06-29.8l-.2-.46c15.75-11.68,25.76-30.55,25.4-52-.12-7.04-1.34-13.85-3.51-20.24"/>
    <g>
      <path class="cls-5" d="M234.66,77.57c31.16,33.76,1.71,76.04-5.2,70.41-1.06-.86-1.69-4.41-.65-5.44,10.68-10.54,14.62-24.9,11.18-39.41-4.02-16.95-16.28-22.02-10.61-26.47,1.11-.87,4.15-.32,5.28.91Z"/>
      <path class="cls-5" d="M223.6,89.9c19.14,23.39.47,51.44-5.81,47.11-1.18-.81-1.96-4.28-.91-5.38,10.01-10.42,10.41-26.19.68-36.86-1.49-1.64-1.51-4.65.2-5.91,1.66-1.23,4.45-.65,5.84,1.05Z"/>
      <path class="cls-5" d="M210.73,125.38c-1.22,1.47-4.3,1.73-5.46.42-1.4-1.58-1.55-4.13-.13-5.78,8.49-9.87-4.55-15.87.52-20.23.99-.85,4.14-.35,5.09.74,6.37,7.36,6.17,17.43-.02,24.85Z"/>
    </g>
    <g>
      <path class="cls-3" d="M37.85,141.78c-.72,4-1.18,8.87-1.3,14.17"/>
      <circle class="cls-3" cx="54.97" cy="106.28" r="22.71"/>
      <path class="cls-3" d="M62.13,65.32c19.97,2.41,35.45,19.68,35.45,40.62,0,22.59-18.02,40.91-40.25,40.91s-40.25-18.32-40.25-40.91c0-15.47,8.45-28.93,20.91-35.88"/>
      <path class="cls-3" d="M37.98,70.06c.41-.23.82-.45,1.23-.66"/>
      <path class="cls-3" d="M125.96,31.66c8.91-1.8,18.12-2.75,27.54-2.75,25.42,0,49.27,6.87,69.87,18.9"/>
      <path class="cls-3" d="M16.75,137.67c1.12-4.56,2.46-9.03,4-13.41"/>
      <path class="cls-3" d="M142.77,316.61c-.54-.04-1.08-.09-1.62-.13C69.06,310.09,12.49,248.27,12.49,172.96c0-12.18,1.48-24,4.26-35.29"/>
      <path class="cls-3" d="M12.49,172.96c0-12.18,1.48-24,4.26-35.29"/>
      <path class="cls-3" d="M161.89,316.77c-1.49.09-2.98.15-4.48.2-1.3.04-2.6.05-3.91.05-2.03,0-4.05-.04-6.07-.13-1.56-.07-3.11-.16-4.66-.28"/>
      <path class="cls-3" d="M81.54,247.36c-25.19-12.51-43.77-45.1-44.95-83.87-.1-3.15-.07-6.27.06-9.35"/>
      <path class="cls-3" d="M213.24,198.28c-20.44,0-37,17.12-37,38.24,0,20,14.85,36.41,33.78,38.1,0,0-35.28,15.85-35.28,15.85l.59-.25c-7.96,3.27-13.59,11.39-13.59,20.89,0,1.92.23,3.78.66,5.55"/>
      <path class="cls-3" d="M188.83,265.26c5.76,5.22,13.1,8.63,21.18,9.35,0,0-35.28,15.85-35.28,15.85l.59-.25c-7.96,3.27-13.59,11.39-13.59,20.89,0,1.92.23,3.78.66,5.55"/>
      <path class="cls-3" d="M188.83,265.26c-4.24,4.44-19.22,7.72-37.04,7.72-8.91,0-17.11-.82-23.61-2.2"/>
      <path class="cls-3" d="M142.78,316.46c-.55-6.2-1.94-13.52-4.15-21.19-2.9-10.06-6.69-18.83-10.45-24.88l.06.13c-1.51-6.4-2.45-15.24-2.45-25,0-7.45.55-14.37,1.48-20.07"/>
      <path class="cls-3" d="M249.46,278.53c12.76-12.39,20.85-30.84,20.85-51.44,0-37.32-26.55-67.57-59.31-67.57-9.51,0-18.49,2.55-26.46,7.08l2.62-1.45c-3.58,2.23-7.59,4.32-11.93,6.16-3.6,1.53-7.16,2.78-10.6,3.75l1-.26c-3.38,1.15-7.1,1.78-11,1.78-15.61,0-28.26-10.14-28.26-22.66s12.65-22.66,28.26-22.66"/>
      <path class="cls-3" d="M211.01,159.52c-9.51,0-18.49,2.55-26.46,7.08l2.62-1.45c-3.58,2.23-7.59,4.32-11.93,6.16-3.6,1.53-7.16,2.78-10.6,3.75l1-.26c-3.38,1.15-7.1,1.78-11,1.78-15.61,0-28.26-10.14-28.26-22.66s12.65-22.66,28.26-22.66"/>
      <path class="cls-3" d="M285.94,124.6c2.17,6.39,3.39,13.2,3.51,20.24.35,21.45-9.65,40.31-25.4,52"/>
      <path class="cls-3" d="M63.72,55.55c4.62-15.26,22.57-26.64,43.99-26.64,19.25,0,35.69,9.19,42.19,22.12l52.67-9.03c1.6,2.69,2.88,5.61,3.78,8.74,6.01,21.01-7.52,43.3-30.22,49.79-9.02,2.58-18.14,2.28-26.22-.35l-.22.24c5.44,4.93,14.4,10.11,25.08,14.08,2.58.96,5.14,1.8,7.63,2.53l-.53-.16c1.81.55,3.12,2.18,3.12,4.1,0,1.04-.38,1.99-1.02,2.73l.13-.21c-3.64,4.54-13.19,7.77-24.4,7.77-1.78.03-3.63-.04-5.41,0l1.99.06c-43.89,1.46-78.01,46.53-76.21,100.67,1.13,34.02,16.16,63.52,38.07,80.39"/>
      <path class="cls-3" d="M63.72,55.55c4.62-15.26,22.57-26.64,43.99-26.64,19.25,0,35.69,9.19,42.19,22.12l52.67-9.03c1.6,2.69,2.88,5.61,3.78,8.74,6.01,21.01-7.52,43.3-30.22,49.79-9.02,2.58-18.14,2.28-26.22-.35l-.22.24c5.44,4.93,14.4,10.11,25.08,14.08,2.58.96,5.14,1.8,7.63,2.53l-.53-.16c1.81.55,3.12,2.18,3.12,4.1,0,1.04-.38,1.99-1.02,2.73l.13-.21c-3.64,4.54-13.19,7.77-24.4,7.77-1.78.03-3.63-.04-5.41,0l1.99.06c-2.54.08-5.05.31-7.52.68"/>
      <path class="cls-3" d="M287.8,131.28c6.55,21.59,7.9,44.05,4.38,65.55l1.89-23.87c0,39.38-15.32,75.08-40.15,101.12-23.74,24.6-56.08,40.52-92.03,42.68"/>
      <path class="cls-3" d="M223.28,47.95c28.88,16.97,51.33,44.11,62.66,76.65"/>
      <path class="cls-3" d="M108.5,14.22c-5.69-3.11-11.84-4.82-18.27-4.82-28.85,0-52.24,34.3-52.24,76.61,0,1.55.03,3.09.09,4.62l.17.3c4.15-4.52,10.11-7.35,16.73-7.35,2.22,0,4.37.32,6.41.92v-.02c-.05-1.58-.08-3.17-.08-4.78,0-37.55,16.63-68,37.14-68,10.13,0,19.32,7.43,26.02,19.48"/>
    </g>
  </g>
</svg>