<?xml version="1.0" encoding="UTF-8"?>
<svg id="Layer_1" data-name="Layer 1" xmlns="http://www.w3.org/2000/svg" viewBox="0 0 305.82 476.74">
  <defs>
    <style>
      .cls-1 {
        fill: #b89040;
      }

      .cls-2 {
        font-family: HelveticaNeue-Thin, 'Helvetica Neue';
        font-size: 49px;
        font-weight: 200;
      }

      .cls-2, .cls-3, .cls-4 {
        fill: #4e4f54;
      }

      .cls-5 {
        fill: none;
        stroke: #4e4f54;
        stroke-linecap: round;
        stroke-miterlimit: 10;
        stroke-width: 10px;
      }

      .cls-3 {
        font-family: HelveticaNeue-Light, 'Helvetica Neue';
        font-size: 110px;
        font-weight: 300;
        letter-spacing: .06em;
      }

      .cls-6 {
        fill: #4a90d1;
      }
    </style>
  </defs>
  <text class="cls-3" transform="translate(.34 419.76)"><tspan x="0" y="0">OTTO</tspan></text>
  <text class="cls-2" transform="translate(1.85 466.66)"><tspan x="0" y="0">ENGINEERING</tspan></text>
  <g>
    <path class="cls-1" d="M33.96,145.46c-.86,4.77-1.36,10.74-1.36,17.21,0,.73,0,1.45.02,2.16l.1-6.65c-.14,3.17-.16,6.39-.06,9.64,1.21,39.95,20.36,73.55,46.32,86.44h0c-.83-5.14-1.35-10.43-1.53-15.83-1.85-55.8,33.31-102.25,78.54-103.75l-2.05-.06c1.84-.03,3.74.04,5.58,0,11.56,0,21.4-3.34,25.15-8.01l-.14.21c.65-.77,1.05-1.75,1.05-2.82,0-1.98-1.35-3.66-3.21-4.22l.55.16c-2.57-.74-5.2-1.61-7.86-2.6-11.01-4.1-20.24-9.43-25.85-14.51l.23-.25c8.33,2.7,17.72,3.02,27.02.36,23.39-6.69,37.34-29.66,31.14-51.31-.92-3.23-2.24-6.24-3.89-9.01l-54.28,9.3c-6.69-13.33-23.63-22.8-43.48-22.8-22.08,0-40.57,11.73-45.34,27.45"/>
    <path class="cls-1" d="M189.55,272.71c-4.37,4.58-19.8,7.96-38.17,7.96-9.18,0-17.64-.85-24.34-2.26l.06-.28-.06-.13c3.88,6.24,7.78,15.28,10.77,25.64,2.28,7.91,3.71,15.45,4.28,21.84v.15c-.57-.04-1.13-.09-1.68-.14-8.13-.72-16.06-2.12-23.75-4.15v-.05c-22.56-17.39-38.06-47.79-39.22-82.85-1.74-52.57,29.37-96.84,70.79-103.04l6.08-.76c-16.09,0-29.13,10.45-29.13,23.35s13.04,23.35,29.13,23.35c4.02,0,7.85-.65,11.34-1.84l-1.03.27c3.55-1,7.22-2.29,10.93-3.87,4.47-1.9,8.61-4.06,12.3-6.35l-2.7,1.49c8.21-4.67,17.47-7.29,27.26-7.29,33.76,0,61.12,31.18,61.12,69.63,0,21.23-8.34,40.24-21.49,53.01h-.01c-23.97,22.74-55.46,37.32-90.24,39.4l.52-.13c-.44-1.83-.68-3.75-.68-5.72,0-9.79,5.81-18.16,14-21.52l-.61.26s36.36-16.33,36.36-16.33c-19.5-1.74-34.81-18.65-34.81-39.26,0-21.76,17.07-39.41,38.14-39.41"/>
    <path class="cls-4" d="M179.57,46.77l24.13-4.14c1.65,2.77,2.97,5.79,3.89,9.01,1.39,4.87,1.77,9.8,1.24,14.61-1.84.4-3.76.62-5.75.62-12.82,0-23.24-8.96-23.52-20.1Z"/>
    <path class="cls-4" d="M129.11,65.21c-4.59-2.24-8.68-3.21-11.37-.85-3.6,3.16-3.85,6.62-2,12.06-2.52.42-5.98-.54-7.9-2.58-4.12-4.36-4.7-10.45-1.8-15,3.01-4.73,8.22-7.44,14.4-5.74,4.38,1.21,8.89,5.85,8.67,12.11Z"/>
    <g>
      <path class="cls-6" d="M58.97,66.66c20.58,2.49,36.53,20.28,36.53,41.86,0,23.28-18.57,42.16-41.48,42.16s-41.48-18.87-41.48-42.16c0-15.94,8.7-29.81,21.55-36.98"/>
      <path class="cls-6" d="M106.76,14c-5.86-3.21-12.21-4.96-18.83-4.96-29.74,0-53.84,35.35-53.84,78.95,0,1.6.03,3.18.1,4.76l.17.31c4.28-4.66,10.42-7.58,17.24-7.58,2.29,0,4.51.33,6.6.94v-.02c-.06-1.63-.09-3.27-.09-4.93,0-38.7,17.14-70.07,38.28-70.07,10.44,0,19.91,7.66,26.82,20.07"/>
      <circle class="cls-6" cx="51.6" cy="108.88" r="23.4"/>
    </g>
    <path class="cls-1" d="M284.31,115.14c9.23,20.34,13.64,41.61,13.69,62.46,0,40.59-15.79,77.38-41.38,104.21l-4.6,4.58c13.15-12.77,21.49-31.78,21.49-53.01,0-11.02-2.25-21.44-6.25-30.71l-.21-.47c16.23-12.04,26.54-31.49,26.18-53.59-.12-7.26-1.38-14.27-3.61-20.86"/>
    <g>
      <path class="cls-4" d="M236.77,79.28c32.11,34.79,1.76,78.37-5.36,72.56-1.09-.89-1.74-4.54-.67-5.61,11-10.86,15.07-25.67,11.52-40.61-4.14-17.47-16.78-22.69-10.94-27.28,1.15-.9,4.28-.33,5.44.93Z"/>
      <path class="cls-4" d="M225.38,92c19.72,24.11.48,53.01-5.99,48.55-1.21-.84-2.02-4.41-.93-5.55,10.31-10.74,10.73-26.99.7-37.99-1.54-1.69-1.55-4.79.2-6.09,1.71-1.27,4.58-.67,6.02,1.08Z"/>
      <path class="cls-4" d="M212.11,128.56c-1.26,1.51-4.43,1.78-5.63.44-1.44-1.63-1.6-4.25-.13-5.96,8.75-10.18-4.69-16.36.53-20.85,1.02-.88,4.27-.36,5.24.77,6.56,7.59,6.36,17.96-.02,25.61Z"/>
    </g>
    <g>
      <path class="cls-5" d="M33.96,145.46c-.74,4.12-1.22,9.14-1.34,14.6"/>
      <circle class="cls-5" cx="51.6" cy="108.88" r="23.4"/>
      <path class="cls-5" d="M58.97,66.66c20.58,2.49,36.53,20.28,36.53,41.86,0,23.28-18.57,42.16-41.48,42.16s-41.48-18.87-41.48-42.16c0-15.94,8.7-29.81,21.55-36.98"/>
      <path class="cls-5" d="M34.09,71.54c.42-.23.84-.46,1.27-.68"/>
      <path class="cls-5" d="M124.75,31.97c9.18-1.86,18.67-2.83,28.38-2.83,26.2,0,50.78,7.08,72,19.48"/>
      <path class="cls-5" d="M12.21,141.23c1.16-4.7,2.54-9.31,4.12-13.82"/>
      <path class="cls-5" d="M142.08,325.63c-.56-.04-1.11-.09-1.67-.14C66.11,318.91,7.81,255.21,7.81,177.6c0-12.55,1.52-24.73,4.39-36.37"/>
      <path class="cls-5" d="M7.81,177.6c0-12.55,1.52-24.73,4.39-36.37"/>
      <path class="cls-5" d="M161.78,325.8c-1.53.09-3.07.16-4.62.2-1.34.04-2.68.06-4.03.06-2.09,0-4.18-.05-6.25-.13-1.61-.07-3.21-.17-4.8-.29"/>
      <path class="cls-5" d="M78.97,254.26c-25.96-12.89-45.1-46.48-46.32-86.44-.1-3.25-.08-6.46.06-9.64"/>
      <path class="cls-5" d="M214.7,203.68c-21.06,0-38.14,17.64-38.14,39.41,0,20.61,15.31,37.52,34.81,39.26,0,0-36.36,16.33-36.36,16.33l.61-.26c-8.2,3.37-14,11.74-14,21.52,0,1.98.24,3.89.68,5.72"/>
      <path class="cls-5" d="M189.55,272.71c5.93,5.38,13.5,8.89,21.82,9.64,0,0-36.36,16.33-36.36,16.33l.61-.26c-8.2,3.37-14,11.74-14,21.52,0,1.98.24,3.89.68,5.72"/>
      <path class="cls-5" d="M189.55,272.71c-4.37,4.58-19.8,7.96-38.17,7.96-9.18,0-17.64-.85-24.34-2.26"/>
      <path class="cls-5" d="M142.09,325.48c-.57-6.39-1.99-13.93-4.28-21.84-2.99-10.36-6.89-19.4-10.77-25.64l.06.13c-1.56-6.59-2.52-15.71-2.52-25.77,0-7.68.56-14.81,1.52-20.68"/>
      <path class="cls-5" d="M252.03,286.39c13.15-12.77,21.49-31.78,21.49-53.01,0-38.46-27.36-69.63-61.12-69.63-9.8,0-19.06,2.63-27.26,7.29l2.7-1.49c-3.69,2.29-7.82,4.45-12.3,6.35-3.71,1.58-7.38,2.87-10.93,3.87l1.03-.27c-3.48,1.18-7.32,1.84-11.34,1.84-16.09,0-29.13-10.45-29.13-23.35s13.04-23.35,29.13-23.35"/>
      <path class="cls-5" d="M212.4,163.75c-9.8,0-19.06,2.63-27.26,7.29l2.7-1.49c-3.69,2.29-7.82,4.45-12.3,6.35-3.71,1.58-7.38,2.87-10.93,3.87l1.03-.27c-3.48,1.18-7.32,1.84-11.34,1.84-16.09,0-29.13-10.45-29.13-23.35s13.04-23.35,29.13-23.35"/>
      <path class="cls-5" d="M289.63,127.75c2.23,6.59,3.49,13.6,3.61,20.86.37,22.1-9.94,41.55-26.18,53.59"/>
      <path class="cls-5" d="M60.61,56.59c4.76-15.73,23.26-27.45,45.34-27.45,19.84,0,36.79,9.47,43.48,22.8l54.28-9.3c1.65,2.77,2.97,5.79,3.89,9.01,6.19,21.65-7.75,44.62-31.14,51.31-9.3,2.66-18.69,2.35-27.02-.36l-.23.25c5.61,5.08,14.84,10.42,25.85,14.51,2.66.99,5.3,1.86,7.86,2.6l-.55-.16c1.86.56,3.21,2.24,3.21,4.22,0,1.07-.39,2.05-1.05,2.82l.14-.21c-3.75,4.67-13.59,8.01-25.15,8.01-1.84.03-3.74-.04-5.58,0l2.05.06c-45.23,1.5-80.39,47.95-78.54,103.75,1.16,35.06,16.66,65.46,39.24,82.85"/>
      <path class="cls-5" d="M60.61,56.59c4.76-15.73,23.26-27.45,45.34-27.45,19.84,0,36.79,9.47,43.48,22.8l54.28-9.3c1.65,2.77,2.97,5.79,3.89,9.01,6.19,21.65-7.75,44.62-31.14,51.31-9.3,2.66-18.69,2.35-27.02-.36l-.23.25c5.61,5.08,14.84,10.42,25.85,14.51,2.66.99,5.3,1.86,7.86,2.6l-.55-.16c1.86.56,3.21,2.24,3.21,4.22,0,1.07-.39,2.05-1.05,2.82l.14-.21c-3.75,4.67-13.59,8.01-25.15,8.01-1.84.03-3.74-.04-5.58,0l2.05.06c-2.62.09-5.2.32-7.75.71"/>
      <path class="cls-5" d="M291.54,134.64c6.75,22.25,8.15,45.4,4.51,67.56l1.95-24.6c0,40.59-15.79,77.38-41.38,104.21-24.46,25.35-57.79,41.76-94.85,43.99"/>
      <path class="cls-5" d="M225.05,48.76c29.77,17.49,52.9,45.46,64.58,78.99"/>
      <path class="cls-5" d="M106.76,14c-5.86-3.21-12.21-4.96-18.83-4.96-29.74,0-53.84,35.35-53.84,78.95,0,1.6.03,3.18.1,4.76l.17.31c4.28-4.66,10.42-7.58,17.24-7.58,2.29,0,4.51.33,6.6.94v-.02c-.06-1.63-.09-3.27-.09-4.93,0-38.7,17.14-70.07,38.28-70.07,10.44,0,19.91,7.66,26.82,20.07"/>
    </g>
  </g>
</svg>