<svg xmlns="http://www.w3.org/2000/svg" width="64" height="64" viewBox="0 0 24 24" fill="none" stroke="#4a90d1" stroke-width="1.5" stroke-linecap="round" stroke-linejoin="round">
  <path d="M3 9 Q3 4 8 3 Q13 2.5 15 7 Q18 7.5 20.5 9.5 Q21 11.5 19 12 Q15.5 12.5 14 12.5 Q9 13 3.5 12 Q2.5 11 3 9 Z"/>
  <path d="M4 5.5 Q10 0 14 5"/>
  <path d="M6 4 Q5.5 1.5 8 3"/>
  <circle cx="6.5" cy="7.5" r="1.7" fill="#4a90d1" stroke="none"/>
  <circle cx="12.5" cy="7" r="0.4" fill="#4a90d1" stroke="none"/>
  <path d="M1 15 Q5 14 9 15 Q13 16 17 15 Q21 14 23 15"/>
  <path d="M1 18 Q5 17 9 18 Q13 19 17 18 Q21 17 23 18" opacity="0.5"/>
  <path d="M1 21 Q5 20 9 21 Q13 22 17 21 Q21 20 23 21" opacity="0.3"/>
  <circle cx="4" cy="19" r="0.4" fill="#4a90d1" stroke="none" opacity="0.55"/>
  <circle cx="12" cy="20.5" r="0.4" fill="#4a90d1" stroke="none" opacity="0.55"/>
  <circle cx="20" cy="19" r="0.4" fill="#4a90d1" stroke="none" opacity="0.55"/>
</svg>
